<svg xmlns="http://www.w3.org/2000/svg" viewBox="0 0 256 256" shape-rendering="crispEdges">
<rect width="256" height="256" rx="24" fill="rgb(250,246,241)"/>
<rect x="96" y="32" width="16" height="16" fill="rgb(184,137,90)"/><rect x="112" y="32" width="16" height="16" fill="rgb(184,137,90)"/><rect x="128" y="32" width="16" height="16" fill="rgb(184,137,90)"/><rect x="144" y="32" width="16" height="16" fill="rgb(184,137,90)"/><rect x="160" y="32" width="16" height="16" fill="rgb(184,137,90)"/><rect x="176" y="32" width="16" height="16" fill="rgb(184,137,90)"/><rect x="64" y="48" width="16" height="16" fill="rgb(184,137,90)"/><rect x="80" y="48" width="16" height="16" fill="rgb(184,137,90)"/><rect x="96" y="48" width="16" height="16" fill="rgb(184,137,90)"/><rect x="112" y="48" width="16" height="16" fill="rgb(184,137,90)"/><rect x="128" y="48" width="16" height="16" fill="rgb(184,137,90)"/><rect x="144" y="48" width="16" height="16" fill="rgb(184,137,90)"/><rect x="160" y="48" width="16" height="16" fill="rgb(184,137,90)"/><rect x="176" y="48" width="16" height="16" fill="rgb(184,137,90)"/><rect x="48" y="64" width="16" height="16" fill="rgb(184,137,90)"/><rect x="64" y="64" width="16" height="16" fill="rgb(184,137,90)"/><rect x="80" y="64" width="16" height="16" fill="rgb(184,137,90)"/><rect x="96" y="64" width="16" height="16" fill="rgb(212,165,116)"/><rect x="128" y="64" width="16" height="16" fill="rgb(184,137,90)"/><rect x="144" y="64" width="16" height="16" fill="rgb(184,137,90)"/><rect x="160" y="64" width="16" height="16" fill="rgb(184,137,90)"/><rect x="176" y="64" width="16" height="16" fill="rgb(184,137,90)"/><rect x="64" y="80" width="16" height="16" fill="rgb(212,165,116)"/><rect x="80" y="80" width="16" height="16" fill="rgb(212,165,116)"/><rect x="96" y="80" width="16" height="16" fill="rgb(212,165,116)"/><rect x="112" y="80" width="16" height="16" fill="rgb(212,165,116)"/><rect x="160" y="80" width="16" height="16" fill="rgb(184,137,90)"/><rect x="176" y="80" width="16" height="16" fill="rgb(184,137,90)"/><rect x="192" y="80" width="16" height="16" fill="rgb(184,137,90)"/><rect x="80" y="96" width="16" height="16" fill="rgb(212,165,116)"/><rect x="96" y="96" width="16" height="16" fill="rgb(184,137,90)"/><rect x="112" y="96" width="16" height="16" fill="rgb(184,137,90)"/><rect x="160" y="96" width="16" height="16" fill="rgb(184,137,90)"/><rect x="176" y="96" width="16" height="16" fill="rgb(184,137,90)"/><rect x="192" y="96" width="16" height="16" fill="rgb(184,137,90)"/><rect x="48" y="112" width="16" height="16" fill="rgb(184,137,90)"/><rect x="64" y="112" width="16" height="16" fill="rgb(184,137,90)"/><rect x="80" y="112" width="16" height="16" fill="rgb(184,137,90)"/><rect x="96" y="112" width="16" height="16" fill="rgb(184,137,90)"/><rect x="112" y="112" width="16" height="16" fill="rgb(184,137,90)"/><rect x="176" y="112" width="16" height="16" fill="rgb(184,137,90)"/><rect x="192" y="112" width="16" height="16" fill="rgb(184,137,90)"/><rect x="48" y="128" width="16" height="16" fill="rgb(184,137,90)"/><rect x="64" y="128" width="16" height="16" fill="rgb(184,137,90)"/><rect x="80" y="128" width="16" height="16" fill="rgb(212,165,116)"/><rect x="96" y="128" width="16" height="16" fill="rgb(212,165,116)"/><rect x="176" y="128" width="16" height="16" fill="rgb(184,137,90)"/><rect x="64" y="144" width="16" height="16" fill="rgb(212,165,116)"/><rect x="80" y="144" width="16" height="16" fill="rgb(212,165,116)"/><rect x="96" y="144" width="16" height="16" fill="rgb(212,165,116)"/><rect x="112" y="144" width="16" height="16" fill="rgb(212,165,116)"/><rect x="160" y="144" width="16" height="16" fill="rgb(184,137,90)"/><rect x="176" y="144" width="16" height="16" fill="rgb(184,137,90)"/><rect x="64" y="160" width="16" height="16" fill="rgb(184,137,90)"/><rect x="80" y="160" width="16" height="16" fill="rgb(184,137,90)"/><rect x="96" y="160" width="16" height="16" fill="rgb(184,137,90)"/><rect x="112" y="160" width="16" height="16" fill="rgb(184,137,90)"/><rect x="144" y="160" width="16" height="16" fill="rgb(184,137,90)"/><rect x="160" y="160" width="16" height="16" fill="rgb(184,137,90)"/><rect x="176" y="160" width="16" height="16" fill="rgb(184,137,90)"/><rect x="48" y="176" width="16" height="16" fill="rgb(184,137,90)"/><rect x="64" y="176" width="16" height="16" fill="rgb(184,137,90)"/><rect x="80" y="176" width="16" height="16" fill="rgb(184,137,90)"/><rect x="96" y="176" width="16" height="16" fill="rgb(184,137,90)"/><rect x="112" y="176" width="16" height="16" fill="rgb(184,137,90)"/><rect x="144" y="176" width="16" height="16" fill="rgb(184,137,90)"/><rect x="160" y="176" width="16" height="16" fill="rgb(184,137,90)"/><rect x="176" y="176" width="16" height="16" fill="rgb(184,137,90)"/><rect x="48" y="192" width="16" height="16" fill="rgb(184,137,90)"/><rect x="64" y="192" width="16" height="16" fill="rgb(212,165,116)"/><rect x="80" y="192" width="16" height="16" fill="rgb(212,165,116)"/><rect x="96" y="192" width="16" height="16" fill="rgb(212,165,116)"/><rect x="160" y="192" width="16" height="16" fill="rgb(184,137,90)"/><rect x="176" y="192" width="16" height="16" fill="rgb(184,137,90)"/><rect x="192" y="192" width="16" height="16" fill="rgb(184,137,90)"/><rect x="64" y="208" width="16" height="16" fill="rgb(212,165,116)"/><rect x="80" y="208" width="16" height="16" fill="rgb(212,165,116)"/><rect x="96" y="208" width="16" height="16" fill="rgb(212,165,116)"/><rect x="112" y="208" width="16" height="16" fill="rgb(212,165,116)"/><rect x="160" y="208" width="16" height="16" fill="rgb(184,137,90)"/><rect x="176" y="208" width="16" height="16" fill="rgb(184,137,90)"/><rect x="192" y="208" width="16" height="16" fill="rgb(184,137,90)"/><rect x="176" y="224" width="16" height="16" fill="rgb(184,137,90)"/>
</svg>